# This file uses meters as units for non-parametric coordinates.

g default
v -92.032578 -22.251770 -3.643555
v 92.032578 -22.196259 -3.642090
v -92.032578 22.431122 -3.643555
v 92.032578 22.378510 -3.643555
v -81.277771 12.470825 7.019775
v 81.301727 12.496704 7.019775
v -81.277771 -11.731598 7.019775
v 81.301727 -11.758942 7.081848
v -88.659058 -25.177094 -3.643555
v -78.745583 -13.661804 7.019775
v -78.745583 14.298340 7.019775
v -88.659058 25.200714 -3.643555
v 89.366272 -25.619781 -3.643555
v 79.268021 -14.011536 7.081848
v 79.268021 14.629425 7.019775
v 89.366272 25.619781 -3.643555
v -84.253990 20.126160 9.451538
v -87.744850 18.428284 9.451538
v -87.744850 -18.023926 9.451538
v -84.253990 -19.817322 9.451538
v 85.083862 -20.562805 9.451538
v 87.759918 -18.011536 9.451538
v 87.759918 18.416534 9.451538
v 85.083862 20.832001 9.451538
v -81.574341 17.222290 9.094666
v -84.356323 15.149109 9.094666
v -84.356323 -14.560516 9.094666
v -81.574341 -16.750153 9.094666
v 82.169540 -17.158661 9.094666
v 84.382141 -14.586243 9.094666
v 84.382141 15.173523 9.094666
v 82.169540 17.609039 9.094666
v -90.375168 24.334198 -3.643555
v -86.297485 20.084686 9.451538
v -83.005112 16.590027 9.094666
v -80.047867 13.740936 7.019775
v -80.047867 -13.073090 7.019775
v -83.005112 -16.082367 9.094666
v -86.297485 -19.773560 9.451538
v -90.375168 -24.261902 -3.643555
v 90.879700 24.748749 -3.643555
v 86.672882 20.418427 9.451538
v 83.345261 16.903564 9.094666
v 80.351044 14.017334 7.019775
v 80.351044 -13.364960 7.081848
v 83.345261 -16.413452 9.094666
v 86.672882 -20.125977 9.451538
v 90.879700 -24.699738 -3.642090
v -87.102058 23.220184 4.777344
v -88.978683 22.725189 4.777344
v -90.591125 20.937317 4.777344
v -90.591125 -20.674042 4.777344
v -88.978683 -22.562439 4.777344
v -87.102058 -23.085266 4.777344
v 87.886871 -23.691650 4.792419
v 89.444656 -22.980957 4.792419
v 90.594910 -20.638214 4.792419
v 90.594910 20.903381 4.777344
v 89.444656 23.121368 4.777344
v 87.886871 23.794312 4.777344
v -80.044197 12.681183 0.000000
v -77.029465 13.210693 0.000000
v -80.044197 -11.953766 0.000000
v -77.029465 -12.513062 0.000000
v 77.555283 13.525269 0.000000
v 77.555283 -12.845306 0.000000
v 80.345581 12.943756 0.000000
v 81.242188 11.499176 0.000000
v 80.345581 -12.231079 0.000000
v 81.242188 -10.705292 0.000000
v -81.201355 11.474548 0.000000
v -81.201355 -10.679321 0.000000
v -79.706711 15.291809 8.736694
v -81.052650 14.708984 8.736694
v -82.323776 13.380829 8.736694
v -82.323776 -12.692780 8.736694
v -81.052650 -14.095551 8.732788
v -79.706718 -14.711151 8.732788
v 80.253876 -15.080841 8.744324
v 81.368408 -14.400787 8.744324
v 82.348373 -12.719574 8.744324
v 82.348373 13.406219 8.736694
v 81.368393 14.998016 8.736694
v 80.253876 15.641815 8.736694
vt 0.108705 0.181797
vt 0.093256 0.172560
vt 0.093539 0.105857
vt 0.108928 0.096927
vt 0.047065 0.241129
vt 0.025711 0.225412
vt 0.025963 0.053954
vt 0.047384 0.038172
vt 0.909152 0.055369
vt 0.908833 0.226838
vt 0.847195 0.174318
vt 0.847498 0.107150
vt 0.893547 0.037620
vt 0.836221 0.096749
vt 0.835879 0.184939
vt 0.893170 0.244982
vt 0.074533 0.213308
vt 0.053065 0.204096
vt 0.053346 0.074722
vt 0.074844 0.065717
vt 0.869133 0.063808
vt 0.884218 0.076215
vt 0.883891 0.205854
vt 0.868743 0.218388
vt 0.091256 0.198565
vt 0.073710 0.187020
vt 0.073987 0.091641
vt 0.091547 0.080314
vt 0.852542 0.079953
vt 0.865401 0.092866
vt 0.865086 0.188816
vt 0.852163 0.201995
vt 0.036305 0.235941
vt 0.061920 0.212705
vt 0.082264 0.195018
vt 0.100760 0.178987
vt 0.100993 0.099690
vt 0.082527 0.083811
vt 0.062260 0.066219
vt 0.036452 0.043533
vt 0.901979 0.239603
vt 0.877703 0.216132
vt 0.858987 0.198147
vt 0.841920 0.181864
vt 0.842228 0.099688
vt 0.859316 0.083768
vt 0.878079 0.066060
vt 0.902228 0.042678
vt 0.056802 0.229867
vt 0.045248 0.226853
vt 0.035279 0.217321
vt 0.035547 0.061757
vt 0.045547 0.052265
vt 0.057149 0.049319
vt 0.885067 0.048065
vt 0.893842 0.051766
vt 0.900420 0.063229
vt 0.900097 0.218985
vt 0.893474 0.230649
vt 0.884672 0.234377
vt 0.111599 0.173660
vt 0.105519 0.169680
vt 0.105629 0.107056
vt 0.112988 0.105411
vt 0.832847 0.175805
vt 0.832644 0.106963
vt 0.840882 0.164866
vt 0.838897 0.172553
vt 0.838222 0.109967
vt 0.840049 0.116661
vt 0.101196 0.165601
vt 0.099536 0.111025
vt 0.109509 0.181952
vt 0.100124 0.178728
vt 0.103159 0.097768
vt 0.109743 0.097741
vt 0.837236 0.184250
vt 0.840623 0.097254
vt 0.847793 0.171119
vt 0.843460 0.182394
vt 0.843421 0.100843
vt 0.847057 0.107610
vt 0.093617 0.171031
vt 0.094297 0.105835
vt 0.102776 0.187495
vt 0.094476 0.184434
vt 0.086615 0.177473
vt 0.086896 0.101027
vt 0.094719 0.094295
vt 0.103022 0.091282
vt 0.841766 0.091042
vt 0.848034 0.094279
vt 0.853581 0.102297
vt 0.853274 0.179244
vt 0.847719 0.187396
vt 0.841411 0.190734
vn 0.001320 -0.284497 0.958676
vn 0.124014 -0.226881 0.965995
vn 0.131009 0.226375 0.965190
vn 0.001386 0.284928 0.958548
vn 0.248329 -0.334866 0.908954
vn 0.461782 -0.847544 0.261583
vn 0.005717 -0.964696 0.263305
vn 0.002914 -0.435369 0.900247
vn 0.982300 0.050591 0.180352
vn 0.982646 -0.050730 0.178419
vn 0.406969 -0.021656 0.913185
vn 0.402593 0.021707 0.915122
vn 0.002875 0.414363 0.910107
vn 0.005956 0.960815 0.277127
vn 0.479627 0.834025 0.272692
vn 0.248360 0.317573 0.915131
vn -0.984166 -0.038385 0.173042
vn -0.983673 0.038746 0.175743
vn -0.402397 0.017420 0.915300
vn -0.408498 -0.017174 0.912598
vn -0.002258 0.960560 0.278062
vn -0.001226 0.410222 0.911985
vn -0.000235 -0.285195 0.958470
vn -0.000266 0.285432 0.958399
vn -0.001198 -0.432591 0.901590
vn -0.002092 -0.964541 0.263926
vn -0.595132 0.754875 0.275648
vn -0.279884 0.249608 0.927017
vn -0.980323 -0.031291 0.194902
vn -0.160181 -0.212093 0.964033
vn -0.170125 0.212717 0.962190
vn -0.980197 0.031210 0.195548
vn -0.288518 -0.270226 0.918551
vn -0.577825 -0.771438 0.266461
vn -0.005737 0.948245 0.317489
vn -0.523399 0.754388 0.396172
vn -0.255619 0.505147 0.824309
vn -0.003207 0.727187 0.686432
vn -0.959219 0.035572 0.280417
vn -0.959454 -0.035574 0.279611
vn -0.734440 -0.020010 0.678378
vn -0.731484 0.020722 0.681544
vn -0.539239 -0.737167 0.407193
vn -0.006039 -0.942634 0.333773
vn -0.003309 -0.703635 0.710554
vn -0.263968 -0.487253 0.832409
vn 0.001040 -0.942598 0.333929
vn -0.001472 -0.704079 0.710120
vn 0.693396 -0.597871 0.402185
vn 0.960350 -0.025420 0.277635
vn 0.734394 -0.012909 0.678601
vn 0.387882 -0.382187 0.838737
vn 0.960105 0.025521 0.278474
vn 0.731443 0.013625 0.681767
vn 0.679579 0.618062 0.395187
vn 0.380530 0.401230 0.833194
vn 0.001009 0.948182 0.317727
vn -0.001446 0.727444 0.686165
vn 0.052161 -0.080099 0.995421
vn 0.000769 -0.127287 0.991866
vn 0.112052 0.004404 0.993693
vn 0.112460 -0.004450 0.993646
vn 0.000764 0.120853 0.992670
vn 0.052511 0.075638 0.995752
vn -0.000107 0.120581 0.992704
vn -0.113300 0.003360 0.993555
vn -0.064748 0.058899 0.996162
vn -0.113752 -0.003390 0.993503
vn -0.065297 -0.062939 0.995879
vn -0.000106 -0.127027 0.991899
vn 0.972054 -0.041278 0.231102
vn 0.971782 0.040758 0.232334
vn -0.007053 0.975244 0.221018
vn -0.575206 0.777912 0.252966
vn -0.983611 0.040469 0.175704
vn -0.983504 -0.040958 0.176191
vn -0.592593 -0.761914 0.261380
vn -0.007399 -0.972548 0.232586
vn 0.002212 -0.972567 0.232612
vn 0.739238 -0.623145 0.255379
vn 0.984366 -0.029513 0.173643
vn 0.984433 0.029232 0.173312
vn 0.724991 0.641756 0.250076
vn 0.002149 0.975261 0.221047
s 1
g Light
f 62/61/1 61/62/2 63/63/3 64/64/4
f 74/86/5 36/36/6 11/1/7 73/85/8
f 7/3/9 5/2/10 75/87/11 76/88/12
f 78/90/13 10/4/14 37/37/15 77/89/16
f 6/11/17 8/12/18 81/93/19 82/94/20
f 14/14/21 10/4/14 78/90/13 79/91/22
f 65/65/23 62/61/1 64/64/4 66/66/24
f 84/96/25 73/85/8 11/1/7 15/15/26
f 81/93/19 8/12/18 45/45/27 80/92/28
f 68/67/29 67/68/30 69/69/31 70/70/32
f 83/95/33 44/44/34 6/11/17 82/94/20
f 49/49/35 50/50/36 34/34/37 17/17/38
f 51/51/39 52/52/40 19/19/41 18/18/42
f 53/53/43 54/54/44 20/20/45 39/39/46
f 54/54/44 55/55/47 21/21/48 20/20/45
f 56/56/49 57/57/50 22/22/51 47/47/52
f 57/57/50 58/58/53 23/23/54 22/22/51
f 58/58/53 59/59/55 42/42/56 23/23/54
f 60/60/57 49/49/35 17/17/38 24/24/58
f 17/17/38 34/34/37 35/35/59 25/25/60
f 18/18/42 19/19/41 27/27/61 26/26/62
f 39/39/46 20/20/45 28/28/63 38/38/64
f 20/20/45 21/21/48 29/29/65 28/28/63
f 47/47/52 22/22/51 30/30/66 46/46/67
f 22/22/51 23/23/54 31/31/68 30/30/66
f 23/23/54 42/42/56 43/43/69 31/31/68
f 24/24/58 17/17/38 25/25/60 32/32/70
f 50/50/36 51/51/39 18/18/42 34/34/37
f 35/35/59 34/34/37 18/18/42 26/26/62
f 75/87/11 5/2/10 36/36/6 74/86/5
f 63/63/3 61/62/2 71/71/71 72/72/72
f 37/37/15 7/3/9 76/88/12 77/89/16
f 19/19/41 39/39/46 38/38/64 27/27/61
f 52/52/40 53/53/43 39/39/46 19/19/41
f 59/59/55 60/60/57 24/24/58 42/42/56
f 43/43/69 42/42/56 24/24/58 32/32/70
f 84/96/25 15/15/26 44/44/34 83/95/33
f 69/69/31 67/68/30 65/65/23 66/66/24
f 45/45/27 14/14/21 79/91/22 80/92/28
f 21/21/48 47/47/52 46/46/67 29/29/65
f 55/55/47 56/56/49 47/47/52 21/21/48
f 12/5/73 33/33/74 50/50/36 49/49/35
f 33/33/74 3/6/75 51/51/39 50/50/36
f 3/6/75 1/7/76 52/52/40 51/51/39
f 1/7/76 40/40/77 53/53/43 52/52/40
f 40/40/77 9/8/78 54/54/44 53/53/43
f 9/8/78 13/13/79 55/55/47 54/54/44
f 13/13/79 48/48/80 56/56/49 55/55/47
f 48/48/80 2/9/81 57/57/50 56/56/49
f 2/9/81 4/10/82 58/58/53 57/57/50
f 4/10/82 41/41/83 59/59/55 58/58/53
f 41/41/83 16/16/84 60/60/57 59/59/55
f 16/16/84 12/5/73 49/49/35 60/60/57
f 11/73/7 36/74/6 61/62/2 62/61/1
f 37/75/15 10/76/14 64/64/4 63/63/3
f 15/77/26 11/73/7 62/61/1 65/65/23
f 10/76/14 14/78/21 66/66/24 64/64/4
f 6/79/17 44/80/34 67/68/30 68/67/29
f 45/81/27 8/82/18 70/70/32 69/69/31
f 8/82/18 6/79/17 68/67/29 70/70/32
f 36/74/6 5/83/10 71/71/71 61/62/2
f 5/83/10 7/84/9 72/72/72 71/71/71
f 7/84/9 37/75/15 63/63/3 72/72/72
f 44/80/34 15/77/26 65/65/23 67/68/30
f 14/78/21 45/81/27 69/69/31 66/66/24
f 35/35/59 74/86/5 73/85/8 25/25/60
f 26/26/62 75/87/11 74/86/5 35/35/59
f 76/88/12 75/87/11 26/26/62 27/27/61
f 77/89/16 76/88/12 27/27/61 38/38/64
f 28/28/63 78/90/13 77/89/16 38/38/64
f 79/91/22 78/90/13 28/28/63 29/29/65
f 80/92/28 79/91/22 29/29/65 46/46/67
f 30/30/66 81/93/19 80/92/28 46/46/67
f 82/94/20 81/93/19 30/30/66 31/31/68
f 43/43/69 83/95/33 82/94/20 31/31/68
f 32/32/70 84/96/25 83/95/33 43/43/69
f 25/25/60 73/85/8 84/96/25 32/32/70
