# This file uses meters as units for non-parametric coordinates.

g default
v -23.410278 28.463409 -9.277954
v -23.410278 24.264618 -17.629272
v -23.410278 17.629272 -24.264648
v -23.410263 9.268250 -28.524780
v -23.410278 0.000000 -29.992737
v -23.410278 -9.268250 -28.524780
v -23.410278 -17.629272 -24.264648
v -23.410278 -24.264618 -17.629272
v -23.410278 -28.524750 -9.268250
v -23.410278 -29.992706 0.000000
v -23.410278 -28.524750 9.268250
v -23.410263 -24.264618 17.629272
v -23.410278 -17.629272 24.264587
v -23.410278 -9.268250 28.524780
v -23.410278 0.000000 29.992676
v -23.410263 9.268250 28.524780
v -23.410278 17.629272 24.264587
v -23.410278 24.203247 17.619568
v -23.410278 28.463409 9.258545
v -23.410278 29.931366 -0.009766
v -35.401062 9.700378 -3.151917
v -35.401093 8.251678 -5.995178
v -35.401062 5.995178 -8.251587
v -35.401062 3.151855 -9.700378
v -35.401077 0.000000 -10.199585
v -35.401077 -3.151855 -9.700378
v -35.401062 -5.995178 -8.251587
v -35.401108 -8.251617 -5.995178
v -35.401062 -9.700378 -3.151917
v -35.401062 -10.199585 0.000000
v -35.401062 -9.700378 3.151855
v -35.401108 -8.251617 5.995117
v -35.401062 -5.995178 8.251648
v -35.401031 -3.151855 9.700317
v -35.401077 0.000000 10.199585
v -35.401031 3.151855 9.700317
v -35.401062 5.995178 8.251648
v -35.401093 8.251678 5.995117
v -35.401062 9.700378 3.151855
v -35.401077 10.199585 0.000000
v -33.738632 -29.071655 0.000000
v -33.738617 -27.648804 -8.983643
v -33.738632 -23.519470 -17.087891
v -33.738586 -17.087891 -23.519470
v -33.738586 -8.983643 -27.648804
v -33.738602 0.000000 -29.071655
v -33.738586 8.983643 -27.648804
v -33.738602 17.087891 -23.519470
v -33.738586 23.519470 -17.087891
v -33.738586 27.648773 -8.983643
v -33.738632 29.071625 0.000000
v -33.738586 27.648773 8.983643
v -33.738586 23.519440 17.087891
v -33.738586 17.087891 23.519470
v -33.738602 8.983612 27.648804
v -33.738632 0.000000 29.071655
v -33.738602 -8.983643 27.648804
v -33.738586 -17.087891 23.519470
v -33.738586 -23.519470 17.087891
v -33.738617 -27.648804 8.983643
v -44.604309 -24.679932 0.000000
v -44.604279 -23.472046 -7.626526
v -44.604294 -19.966492 -14.506592
v -44.604294 -14.506531 -19.966492
v -44.604294 -7.626526 -23.472046
v -44.604294 0.000000 -24.679932
v -44.604294 7.626526 -23.472046
v -44.604294 14.506531 -19.966492
v -44.604309 19.966492 -14.506531
v -44.604279 23.472046 -7.626526
v -44.604294 24.679932 0.000000
v -44.604279 23.472046 7.626526
v -44.604294 19.966492 14.506470
v -44.604294 14.506531 19.966492
v -44.604294 7.626526 23.472046
v -44.604263 0.000000 24.679932
v -44.604294 -7.626526 23.472046
v -44.604294 -14.506531 19.966492
v -44.604294 -19.966492 14.506470
v -44.604279 -23.472046 7.626526
v -50.537079 -18.275452 -5.938110
v -50.537048 -15.546021 -11.294922
v -50.537109 -11.294861 -15.546082
v -50.537079 -5.938049 -18.275513
v -50.537048 0.000000 -19.215942
v -50.537079 5.938049 -18.275513
v -50.537094 11.294861 -15.546082
v -50.537064 15.546021 -11.294922
v -50.537079 18.275452 -5.938049
v -50.537079 19.215942 0.000000
v -50.537079 18.275452 5.938049
v -50.537079 15.546021 11.294800
v -50.537079 11.294861 15.546021
v -50.537079 5.938049 18.275391
v -50.537079 0.000000 19.215942
v -50.537079 -5.938049 18.275391
v -50.537079 -11.294861 15.546021
v -50.537079 -15.546021 11.294800
v -50.537079 -18.275452 5.938049
v -50.537079 -19.215942 0.000000
v -35.401077 -3.490845 -8.251587
v -35.401093 -4.804718 -5.995178
v -35.401077 -5.648315 -3.151917
v -35.401062 -5.938965 0.000000
v -35.401077 -5.648315 3.151855
v -35.401093 -4.804718 5.995117
v -35.401077 -3.490845 8.251648
v -35.401062 -0.072144 -8.251587
v -35.401093 -0.099274 -5.995178
v -35.401077 -0.116760 -3.151917
v -35.401077 -0.122742 0.000000
v -35.401062 -0.116760 3.151855
v -35.401108 -0.099274 5.995117
v -35.401062 -0.072144 8.251648
v -35.401077 2.891968 -8.251587
v -35.401108 3.980499 -5.995178
v -35.401062 4.679321 -3.151917
v -35.401077 4.920105 0.000000
v -35.401077 4.679321 3.151855
v -35.401093 3.980499 5.995117
v -35.401062 2.891968 8.251648
vt 0.238133 0.077147
vt 0.224945 0.089598
vt 0.210762 0.084787
vt 0.221674 0.074766
vt 0.204720 0.099399
vt 0.194201 0.092628
vt 0.179435 0.105591
vt 0.173610 0.097524
vt 0.151568 0.107567
vt 0.151006 0.098993
vt 0.123844 0.105134
vt 0.128601 0.096893
vt 0.098979 0.098531
vt 0.108589 0.091430
vt 0.079407 0.088404
vt 0.092929 0.083137
vt 0.067042 0.075744
vt 0.083153 0.072826
vt 0.063095 0.061790
vt 0.080218 0.061508
vt 0.067952 0.047909
vt 0.084411 0.050290
vt 0.081138 0.035458
vt 0.095322 0.040269
vt 0.101362 0.025657
vt 0.111884 0.032428
vt 0.126645 0.019466
vt 0.132474 0.027532
vt 0.154512 0.017489
vt 0.155078 0.026063
vt 0.182235 0.019921
vt 0.177482 0.028162
vt 0.207100 0.026523
vt 0.197494 0.033626
vt 0.226674 0.036650
vt 0.213155 0.041919
vt 0.239041 0.049310
vt 0.222932 0.052229
vt 0.242990 0.063264
vt 0.225867 0.063547
vt 0.102097 0.061052
vt 0.103680 0.069007
vt 0.110094 0.076328
vt 0.120712 0.082298
vt 0.134495 0.086333
vt 0.150094 0.088038
vt 0.165982 0.087246
vt 0.180602 0.084033
vt 0.192525 0.078716
vt 0.200583 0.071815
vt 0.203987 0.064004
vt 0.202405 0.056049
vt 0.195991 0.048728
vt 0.185372 0.042758
vt 0.171589 0.038723
vt 0.155991 0.037018
vt 0.140103 0.037811
vt 0.125483 0.041023
vt 0.113560 0.046340
vt 0.105502 0.053241
vt 0.111666 0.060957
vt 0.112721 0.067436
vt 0.117723 0.073435
vt 0.126183 0.078367
vt 0.137272 0.081748
vt 0.149905 0.083247
vt 0.162845 0.082718
vt 0.174825 0.080213
vt 0.184673 0.075977
vt 0.191424 0.070425
vt 0.194419 0.064099
vt 0.193364 0.057620
vt 0.188362 0.051621
vt 0.179902 0.046689
vt 0.168813 0.043308
vt 0.156180 0.041809
vt 0.143240 0.042338
vt 0.131260 0.044843
vt 0.121412 0.049079
vt 0.114660 0.054632
vt 0.141084 0.063623
vt 0.142344 0.065420
vt 0.144650 0.066934
vt 0.147780 0.068017
vt 0.151424 0.068562
vt 0.155227 0.068518
vt 0.158815 0.067886
vt 0.161838 0.066730
vt 0.164000 0.065162
vt 0.165089 0.063337
vt 0.165000 0.061433
vt 0.163741 0.059636
vt 0.161434 0.058122
vt 0.158304 0.057039
vt 0.154660 0.056494
vt 0.150858 0.056538
vt 0.147269 0.057170
vt 0.144246 0.058327
vt 0.142085 0.059894
vt 0.140995 0.061719
vt 0.158854 0.062919
vt 0.159070 0.061036
vt 0.158069 0.064765
vt 0.156793 0.066392
vt 0.155149 0.067640
vt 0.158696 0.059298
vt 0.157768 0.057876
vt 0.146415 0.065693
vt 0.147609 0.067133
vt 0.145870 0.063944
vt 0.146027 0.062056
vt 0.146871 0.060215
vt 0.148318 0.058600
vt 0.150228 0.057369
vt 0.151973 0.066067
vt 0.151647 0.067404
vt 0.152404 0.064384
vt 0.152897 0.062518
vt 0.153405 0.060654
vt 0.153877 0.058973
vt 0.154267 0.057640
vn -0.084726 0.948013 -0.306744
vn -0.087625 0.806597 -0.584571
vn -0.232476 0.787212 -0.571185
vn -0.231070 0.925598 -0.299791
vn -0.088828 0.585462 -0.805819
vn -0.232975 0.571612 -0.786755
vn -0.088831 0.307794 -0.947297
vn -0.232977 0.300513 -0.924886
vn -0.088829 0.000000 -0.996047
vn -0.232977 0.000000 -0.972482
vn -0.088829 -0.307795 -0.947297
vn -0.232976 -0.300513 -0.924886
vn -0.088829 -0.585462 -0.805819
vn -0.232974 -0.571611 -0.786756
vn -0.088825 -0.805820 -0.585461
vn -0.232972 -0.786756 -0.571611
vn -0.088823 -0.947298 -0.307795
vn -0.232972 -0.924887 -0.300513
vn -0.088824 -0.996047 0.000000
vn -0.232972 -0.972483 0.000000
vn -0.088823 -0.947298 0.307795
vn -0.232971 -0.924887 0.300514
vn -0.088822 -0.805819 0.585463
vn -0.232972 -0.786755 0.571612
vn -0.088825 -0.585462 0.805819
vn -0.232973 -0.571612 0.786755
vn -0.088823 -0.307795 0.947298
vn -0.232973 -0.300514 0.924887
vn -0.088821 0.000000 0.996048
vn -0.232973 0.000000 0.972483
vn -0.088823 0.307795 0.947298
vn -0.232974 0.300513 0.924887
vn -0.087626 0.586475 0.805213
vn -0.232478 0.572177 0.786491
vn -0.084728 0.806824 0.584685
vn -0.231073 0.787655 0.571144
vn -0.082953 0.947750 0.308041
vn -0.230158 0.925538 0.300676
vn -0.082953 0.996553 -0.000094
vn -0.230158 0.973153 0.000047
vn -0.483296 -0.875457 0.000000
vn -0.483294 -0.832610 -0.270530
vn -0.483294 -0.708260 -0.514582
vn -0.483292 -0.514581 -0.708262
vn -0.483293 -0.270530 -0.832611
vn -0.483294 -0.000000 -0.875458
vn -0.483294 0.270530 -0.832610
vn -0.483291 0.514583 -0.708261
vn -0.483293 0.708262 -0.514581
vn -0.483294 0.832611 -0.270531
vn -0.483294 0.875458 -0.000000
vn -0.483294 0.832610 0.270532
vn -0.483295 0.708260 0.514581
vn -0.483295 0.514583 0.708259
vn -0.483296 0.270531 0.832609
vn -0.483297 -0.000000 0.875457
vn -0.483295 -0.270531 0.832610
vn -0.483294 -0.514583 0.708259
vn -0.483294 -0.708260 0.514582
vn -0.483294 -0.832610 0.270532
vn -0.961813 0.273708 0.000000
vn -0.961815 0.260306 0.084578
vn -0.961816 0.221422 0.160878
vn -0.961816 0.160876 0.221427
vn -0.961815 0.084581 0.260303
vn -0.961813 0.000000 0.273708
vn -0.961815 -0.084582 0.260305
vn -0.961814 -0.160879 0.221433
vn -0.961815 -0.221427 0.160879
vn -0.961814 -0.260308 0.084577
vn -0.961814 -0.273705 0.000000
vn -0.961816 -0.260303 -0.084577
vn -0.961814 -0.221433 -0.160879
vn -0.961815 -0.160876 -0.221427
vn -0.961813 -0.084579 -0.260311
vn -0.961816 -0.000000 -0.273697
vn -0.961814 0.084578 -0.260309
vn -0.961816 0.160876 -0.221425
vn -0.961813 0.221434 -0.160881
vn -0.961815 0.260304 -0.084581
vn -0.511770 0.817075 0.265483
vn -0.511771 0.695042 0.504982
vn -0.511774 0.504978 0.695043
vn -0.511774 0.265484 0.817072
vn -0.511772 -0.000000 0.859121
vn -0.511773 -0.265484 0.817072
vn -0.511771 -0.504978 0.695045
vn -0.511768 -0.695045 0.504981
vn -0.511768 -0.817076 0.265481
vn -0.511767 -0.859124 -0.000000
vn -0.511769 -0.817075 -0.265484
vn -0.511768 -0.695047 -0.504979
vn -0.511769 -0.504979 -0.695045
vn -0.511771 -0.265481 -0.817075
vn -0.511770 0.000000 -0.859122
vn -0.511770 0.265482 -0.817074
vn -0.511770 0.504981 -0.695044
vn -0.511767 0.695047 -0.504979
vn -0.511769 0.817074 -0.265487
vn -0.511768 0.859124 -0.000000
vn -1.000000 0.000000 0.000002
vn -1.000000 -0.000000 0.000002
vn -1.000000 0.000004 0.000003
vn -1.000000 0.000004 0.000003
vn -1.000000 0.000000 -0.000005
vn -1.000000 0.000000 -0.000005
vn -1.000000 0.000002 -0.000004
vn -1.000000 0.000002 -0.000004
vn -1.000000 0.000001 0.000012
vn -1.000000 0.000001 0.000012
vn -1.000000 0.000002 0.000013
vn -1.000000 0.000002 0.000013
vn -1.000000 0.000004 -0.000017
vn -1.000000 0.000004 -0.000017
vn -1.000000 -0.000001 -0.000014
vn -1.000000 0.000001 -0.000015
vn -1.000000 0.000002 -0.000007
vn -1.000000 0.000002 -0.000007
vn -1.000000 0.000001 -0.000009
vn -1.000000 0.000001 -0.000009
vn -1.000000 0.000003 0.000015
vn -1.000000 0.000005 0.000016
vn -1.000000 0.000000 0.000014
vn -1.000000 0.000000 0.000014
vn -1.000000 0.000001 -0.000012
vn -1.000000 0.000002 -0.000011
vn -1.000000 0.000000 -0.000014
vn -1.000000 0.000000 -0.000014
vn -1.000000 0.000000 0.000011
vn -1.000000 0.000000 0.000011
vn -1.000000 0.000000 0.000008
vn -1.000000 0.000000 0.000007
vn -1.000000 -0.000002 0.000002
vn -1.000000 -0.000002 0.000002
vn -1.000000 0.000000 0.000002
vn -1.000000 0.000000 0.000002
vn -1.000000 0.000000 -0.000002
vn -1.000000 0.000000 -0.000002
vn -1.000000 0.000000 -0.000001
vn -1.000000 0.000000 -0.000001
vn -1.000000 0.000000 -0.000011
vn -1.000000 0.000000 -0.000011
vn -1.000000 0.000000 -0.000011
vn -1.000000 0.000000 -0.000011
vn -1.000000 0.000000 0.000014
vn -1.000000 0.000000 0.000014
vn -1.000000 0.000000 0.000014
vn -1.000000 0.000000 0.000014
vn -1.000000 0.000000 -0.000011
vn -1.000000 -0.000000 -0.000011
vn -1.000000 0.000000 0.000008
vn -1.000000 0.000000 0.000008
vn -1.000000 -0.000000 0.000000
vn -1.000000 0.000000 0.000000
vn -1.000000 -0.000002 0.000001
vn -1.000000 -0.000002 0.000001
vn -1.000000 0.000000 -0.000011
vn -1.000000 0.000000 -0.000011
vn -1.000000 0.000004 0.000015
vn -1.000000 0.000004 0.000015
vn -1.000000 0.000006 0.000000
vn -1.000000 0.000006 0.000000
vn -1.000000 0.000006 0.000000
vn -1.000000 0.000006 0.000000
vn -1.000000 0.000003 0.000005
vn -1.000000 0.000003 0.000005
vn -1.000000 0.000003 0.000005
vn -1.000000 0.000003 0.000005
vn -1.000000 -0.000008 -0.000001
vn -1.000000 -0.000008 -0.000001
vn -1.000000 -0.000008 -0.000001
vn -1.000000 0.000000 -0.000010
vn -1.000000 0.000000 -0.000010
vn -1.000000 0.000000 -0.000010
vn -1.000000 0.000006 0.000004
vn -1.000000 0.000006 0.000004
vn -1.000000 0.000006 0.000004
vn -1.000000 0.000006 0.000004
vn -1.000000 0.000000 0.000010
vn -1.000000 0.000000 0.000010
vn -1.000000 0.000000 0.000010
vn -1.000000 0.000000 0.000010
vn -1.000000 -0.000017 0.000033
vn -1.000000 -0.000017 0.000033
vn -1.000000 -0.000017 0.000033
vn -1.000000 0.000000 0.000021
vn -1.000000 0.000000 0.000021
vn -1.000000 0.000000 0.000021
s 1
g PuzzlePieceEnd group1
f 1/1/1 2/2/2 49/3/3 50/4/4
f 2/2/2 3/5/5 48/6/6 49/3/3
f 3/5/5 4/7/7 47/8/8 48/6/6
f 4/7/7 5/9/9 46/10/10 47/8/8
f 5/9/9 6/11/11 45/12/12 46/10/10
f 6/11/11 7/13/13 44/14/14 45/12/12
f 7/13/13 8/15/15 43/16/16 44/14/14
f 8/15/15 9/17/17 42/18/18 43/16/16
f 9/17/17 10/19/19 41/20/20 42/18/18
f 10/19/19 11/21/21 60/22/22 41/20/20
f 11/21/21 12/23/23 59/24/24 60/22/22
f 12/23/23 13/25/25 58/26/26 59/24/24
f 13/25/25 14/27/27 57/28/28 58/26/26
f 14/27/27 15/29/29 56/30/30 57/28/28
f 15/29/29 16/31/31 55/32/32 56/30/30
f 16/31/31 17/33/33 54/34/34 55/32/32
f 17/33/33 18/35/35 53/36/36 54/34/34
f 18/35/35 19/37/37 52/38/38 53/36/36
f 19/37/37 20/39/39 51/40/40 52/38/38
f 20/39/39 1/1/1 50/4/4 51/40/40
f 42/18/18 41/20/20 61/41/41 62/42/42
f 43/16/16 42/18/18 62/42/42 63/43/43
f 44/14/14 43/16/16 63/43/43 64/44/44
f 45/12/12 44/14/14 64/44/44 65/45/45
f 46/10/10 45/12/12 65/45/45 66/46/46
f 47/8/8 46/10/10 66/46/46 67/47/47
f 48/6/6 47/8/8 67/47/47 68/48/48
f 49/3/3 48/6/6 68/48/48 69/49/49
f 50/4/4 49/3/3 69/49/49 70/50/50
f 51/40/40 50/4/4 70/50/50 71/51/51
f 52/38/38 51/40/40 71/51/51 72/52/52
f 53/36/36 52/38/38 72/52/52 73/53/53
f 54/34/34 53/36/36 73/53/53 74/54/54
f 55/32/32 54/34/34 74/54/54 75/55/55
f 56/30/30 55/32/32 75/55/55 76/56/56
f 57/28/28 56/30/30 76/56/56 77/57/57
f 58/26/26 57/28/28 77/57/57 78/58/58
f 59/24/24 58/26/26 78/58/58 79/59/59
f 60/22/22 59/24/24 79/59/59 80/60/60
f 41/20/20 60/22/22 80/60/60 61/41/41
f 62/42/42 61/41/41 100/61/61 81/62/62
f 63/43/43 62/42/42 81/62/62 82/63/63
f 64/44/44 63/43/43 82/63/63 83/64/64
f 65/45/45 64/44/44 83/64/64 84/65/65
f 66/46/46 65/45/45 84/65/65 85/66/66
f 67/47/47 66/46/46 85/66/66 86/67/67
f 68/48/48 67/47/47 86/67/67 87/68/68
f 69/49/49 68/48/48 87/68/68 88/69/69
f 70/50/50 69/49/49 88/69/69 89/70/70
f 71/51/51 70/50/50 89/70/70 90/71/71
f 72/52/52 71/51/51 90/71/71 91/72/72
f 73/53/53 72/52/52 91/72/72 92/73/73
f 74/54/54 73/53/53 92/73/73 93/74/74
f 75/55/55 74/54/54 93/74/74 94/75/75
f 76/56/56 75/55/55 94/75/75 95/76/76
f 77/57/57 76/56/56 95/76/76 96/77/77
f 78/58/58 77/57/57 96/77/77 97/78/78
f 79/59/59 78/58/58 97/78/78 98/79/79
f 80/60/60 79/59/59 98/79/79 99/80/80
f 61/41/41 80/60/60 99/80/80 100/61/61
f 82/63/63 81/62/62 29/81/81 28/82/82
f 83/64/64 82/63/63 28/82/82 27/83/83
f 84/65/65 83/64/64 27/83/83 26/84/84
f 85/66/66 84/65/65 26/84/84 25/85/85
f 86/67/67 85/66/66 25/85/85 24/86/86
f 87/68/68 86/67/67 24/86/86 23/87/87
f 88/69/69 87/68/68 23/87/87 22/88/88
f 89/70/70 88/69/69 22/88/88 21/89/89
f 90/71/71 89/70/70 21/89/89 40/90/90
f 91/72/72 90/71/71 40/90/90 39/91/91
f 92/73/73 91/72/72 39/91/91 38/92/92
f 93/74/74 92/73/73 38/92/92 37/93/93
f 94/75/75 93/74/74 37/93/93 36/94/94
f 95/76/76 94/75/75 36/94/94 35/95/95
f 96/77/77 95/76/76 35/95/95 34/96/96
f 97/78/78 96/77/77 34/96/96 33/97/97
f 98/79/79 97/78/78 33/97/97 32/98/98
f 99/80/80 98/79/79 32/98/98 31/99/99
f 100/61/61 99/80/80 31/99/99 30/100/100
f 81/62/62 100/61/61 30/100/100 29/81/81
s 2
f 118/101/101 119/102/102 39/91/103 40/90/104
s 3
f 40/90/105 21/89/106 117/103/107 118/101/108
s 4
f 116/104/109 117/103/110 21/89/111 22/88/112
s 5
f 22/88/113 23/87/114 115/105/115 116/104/116
s 6
f 38/92/117 39/91/118 119/102/119 120/106/120
s 7
f 120/106/121 121/107/122 37/93/123 38/92/124
s 5
f 102/108/125 101/109/126 27/83/127 28/82/128
s 4
f 28/82/129 29/81/130 103/110/131 102/108/132
s 3
f 104/111/133 103/110/134 29/81/135 30/100/136
s 2
f 30/100/137 31/99/138 105/112/139 104/111/140
s 6
f 106/113/141 105/112/142 31/99/143 32/98/144
s 7
f 32/98/145 33/97/146 107/114/147 106/113/148
s 5
f 109/115/149 108/116/150 101/109/126 102/108/125
s 4
f 102/108/132 103/110/131 110/117/151 109/115/152
s 3
f 111/118/153 110/117/154 103/110/134 104/111/133
s 2
f 104/111/140 105/112/139 112/119/155 111/118/156
s 6
f 113/120/157 112/119/158 105/112/142 106/113/141
s 7
f 106/113/148 107/114/147 114/121/159 113/120/160
s 5
f 116/104/116 115/105/115 108/116/150 109/115/149
s 4
f 109/115/152 110/117/151 117/103/110 116/104/109
s 3
f 118/101/108 117/103/107 110/117/154 111/118/153
s 2
f 111/118/156 112/119/155 119/102/102 118/101/101
s 6
f 120/106/120 119/102/119 112/119/158 113/120/157
s 7
f 113/120/160 114/121/159 121/107/122 120/106/121
s off
f 108/116/161 115/105/162 24/86/163 25/85/164
f 101/109/165 108/116/166 25/85/167 26/84/168
f 27/83/169 101/109/170 26/84/171
f 115/105/172 23/87/173 24/86/174
f 35/95/175 36/94/176 121/107/177 114/121/178
f 114/121/179 107/114/180 34/96/181 35/95/182
f 107/114/183 33/97/184 34/96/185
f 36/94/186 37/93/187 121/107/188
